<?xml version="1.0" standalone="no"?>
<!DOCTYPE svg PUBLIC "-//W3C//DTD SVG 20010904//EN"
 "http://www.w3.org/TR/2001/REC-SVG-20010904/DTD/svg10.dtd">
<svg version="1.0" xmlns="http://www.w3.org/2000/svg"
 width="29.000000pt" height="27.000000pt" viewBox="0 0 29.000000 27.000000"
 preserveAspectRatio="xMidYMid meet">

<g transform="translate(0.000000,27.000000) scale(0.100000,-0.100000)"
fill="#000000" stroke="none">
<path d="M5 261 c-3 -5 5 -11 16 -13 19 -2 26 -17 44 -83 l21 -80 76 -3 75 -3
27 61 c14 34 26 63 26 66 0 2 -38 4 -85 4 -50 0 -85 -4 -85 -10 0 -6 30 -10
71 -10 39 0 69 -3 67 -7 -2 -5 -10 -25 -18 -45 l-14 -38 -62 0 -62 0 -18 68
c-9 37 -21 75 -26 85 -9 18 -43 23 -53 8z"/>
<path d="M64 39 c-3 -6 0 -17 8 -25 13 -13 16 -13 27 0 7 8 10 20 6 26 -8 13
-32 13 -41 -1z"/>
<path d="M217 36 c-8 -19 15 -37 32 -26 17 10 7 40 -13 40 -7 0 -16 -6 -19
-14z"/>
</g>
</svg>
